<svg width="24" height="24" viewBox="0 0 24 24" fill="none" xmlns="http://www.w3.org/2000/svg">
<path d="M21.5999 20.746L20.2257 5.27117C20.1962 4.92761 19.9067 4.66748 19.568 4.66748H16.741C16.7018 2.08589 14.5913 0 11.9999 0C9.40852 0 7.29809 2.08589 7.25882 4.66748H4.43183C4.08827 4.66748 3.80361 4.92761 3.77416 5.27117L2.39993 20.746C2.39993 20.7656 2.39502 20.7853 2.39502 20.8049C2.39502 22.5669 4.00974 24 5.99747 24H18.0024C19.9901 24 21.6048 22.5669 21.6048 20.8049C21.6048 20.7853 21.6048 20.7656 21.5999 20.746ZM11.9999 1.32515C13.8601 1.32515 15.3766 2.81718 15.4159 4.66748H8.58398C8.62324 2.81718 10.1398 1.32515 11.9999 1.32515ZM18.0024 22.6748H5.99747C4.75085 22.6748 3.73981 21.8503 3.72017 20.8344L5.03551 5.99755H7.25392V8.00982C7.25392 8.37791 7.54839 8.67239 7.91649 8.67239C8.28459 8.67239 8.57907 8.37791 8.57907 8.00982V5.99755H15.4159V8.00982C15.4159 8.37791 15.7104 8.67239 16.0785 8.67239C16.4466 8.67239 16.741 8.37791 16.741 8.00982V5.99755H18.9594L20.2797 20.8344C20.2601 21.8503 19.2441 22.6748 18.0024 22.6748Z" fill="white"/>
</svg>
