<svg display="none" xmlns="http://www.w3.org/2000/svg">
<symbol id="grid" viewBox="0 0 25.000000 25.000000" >
<g transform="translate(0.000000,25.000000) scale(0.100000,-0.100000)"
 stroke="none">
<path  d="M4 236 c-12 -31 0 -51 31 -51 27 0 30 3 30 30 0 25 -4 30 -28 33 -17
2 -29 -2 -33 -12z m56 -21 c0 -20 -5 -25 -25 -25 -20 0 -25 5 -25 25 0 20 5
25 25 25 20 0 25 -5 25 -25z"/>
<path d="M94 236 c-12 -31 0 -51 31 -51 27 0 30 3 30 30 0 25 -4 30 -28 33
-17 2 -29 -2 -33 -12z m56 -21 c0 -20 -5 -25 -25 -25 -20 0 -25 5 -25 25 0 20
5 25 25 25 20 0 25 -5 25 -25z"/>
<path d="M184 236 c-12 -31 0 -51 31 -51 27 0 30 3 30 30 0 25 -4 30 -28 33
-17 2 -29 -2 -33 -12z m56 -21 c0 -20 -5 -25 -25 -25 -20 0 -25 5 -25 25 0 20
5 25 25 25 20 0 25 -5 25 -25z"/>
<path d="M4 146 c-12 -31 0 -51 31 -51 27 0 30 3 30 30 0 25 -4 30 -28 33 -17
2 -29 -2 -33 -12z m56 -21 c0 -20 -5 -25 -25 -25 -20 0 -25 5 -25 25 0 20 5
25 25 25 20 0 25 -5 25 -25z"/>
<path d="M94 146 c-12 -31 0 -51 31 -51 27 0 30 3 30 30 0 25 -4 30 -28 33
-17 2 -29 -2 -33 -12z m56 -21 c0 -20 -5 -25 -25 -25 -20 0 -25 5 -25 25 0 20
5 25 25 25 20 0 25 -5 25 -25z"/>
<path d="M184 146 c-12 -31 0 -51 31 -51 27 0 30 3 30 30 0 25 -4 30 -28 33
-17 2 -29 -2 -33 -12z m56 -21 c0 -20 -5 -25 -25 -25 -20 0 -25 5 -25 25 0 20
5 25 25 25 20 0 25 -5 25 -25z"/>
<path d="M4 56 c-12 -31 0 -51 31 -51 27 0 30 3 30 30 0 25 -4 30 -28 33 -17
2 -29 -2 -33 -12z m56 -21 c0 -20 -5 -25 -25 -25 -20 0 -25 5 -25 25 0 20 5
25 25 25 20 0 25 -5 25 -25z"/>
<path d="M94 56 c-12 -31 0 -51 31 -51 27 0 30 3 30 30 0 25 -4 30 -28 33 -17
2 -29 -2 -33 -12z m56 -21 c0 -20 -5 -25 -25 -25 -20 0 -25 5 -25 25 0 20 5
25 25 25 20 0 25 -5 25 -25z"/>
<path d="M184 56 c-12 -31 0 -51 31 -51 27 0 30 3 30 30 0 25 -4 30 -28 33
-17 2 -29 -2 -33 -12z m56 -21 c0 -20 -5 -25 -25 -25 -20 0 -25 5 -25 25 0 20
5 25 25 25 20 0 25 -5 25 -25z"/>
</g>
</symbol>

<symbol id="list" viewBox="0 0 25.000000 25.000000">
  <g transform="translate(0.000000,25.000000) scale(0.100000,-0.100000)" fill="#fefefe" stroke="none">
    <path d="M0 125 l0 -125 140 0 140 0 0 125 0 125 -140 0 -140 0 0 -125z" />
  </g>
  <g transform="translate(0.000000,25.000000) scale(0.100000,-0.100000)" fill="#b6b5b5" stroke="none">
    <path d="M271 222 l-1 -23 -85 3 c-47 2 -85 0 -85 -4 0 -5 38 -8 85 -8 l86 0
5 15 c3 8 4 20 1 27 -3 7 -6 3 -6 -10z" />
    <path d="M2 210 c0 -14 2 -19 5 -12 2 6 2 18 0 25 -3 6 -5 1 -5 -13z" />
    <path d="M71 214 l1 -19 5 13 c3 7 2 16 -1 19 -3 4 -6 -2 -5 -13z" />
    <path d="M28 183 c7 -3 16 -2 19 1 4 3 -2 6 -13 5 l-19 -1 13 -5z" />
    <path d="M100 143 c0 -5 38 -7 84 -5 l84 3 5 -18 5 -18 1 23 1 22 -90 0 c-49
0 -90 -3 -90 -7z" />
    <path d="M2 120 c0 -14 2 -19 5 -12 2 6 2 18 0 25 -3 6 -5 1 -5 -13z" />
    <path d="M71 124 l1 -19 5 13 c3 7 2 16 -1 19 -3 4 -6 -2 -5 -13z" />
    <path d="M100 110 c0 -6 7 -10 15 -10 8 0 15 2 15 4 0 2 -7 6 -15 10 -8 3 -15
1 -15 -4z" />
    <path d="M189 53 l83 -4 -5 -19 c-3 -11 -1 -20 4 -20 5 0 9 11 9 25 l0 25 -87
-2 -88 -2 84 -3z" />
    <path d="M2 30 c0 -14 2 -19 5 -12 2 6 2 18 0 25 -3 6 -5 1 -5 -13z" />
    <path d="M71 34 l1 -19 5 13 c3 7 2 16 -1 19 -3 4 -6 -2 -5 -13z" />
    <path d="M28 3 c7 -3 16 -2 19 1 4 3 -2 6 -13 5 l-19 -1 13 -5z" />
  </g>
  <g transform="translate(0.000000,25.000000) scale(0.100000,-0.100000)" stroke="none">
    <path d="M101 218 l1 -23 5 18 5 18 84 -3 c46 -2 84 0 84 5 0 4 -40 7 -90 7
l-90 0 1 -22z" />
    <path d="M0 200 c0 -7 3 -10 7 -7 3 4 3 10 0 14 -4 3 -7 0 -7 -7z" />
    <path d="M265 200 c-3 -5 -1 -10 4 -10 6 0 11 5 11 10 0 6 -2 10 -4 10 -3 0
-8 -4 -11 -10z" />
    <path d="M28 153 c7 -3 16 -2 19 1 4 3 -2 6 -13 5 l-19 -1 13 -5z" />
    <path d="M101 124 l1 -19 5 13 c3 7 2 16 -1 19 -3 4 -6 -2 -5 -13z" />
    <path d="M0 110 c0 -7 3 -10 7 -7 3 4 3 10 0 14 -4 3 -7 0 -7 -7z" />
    <path d="M260 110 l-15 -10 18 0 c9 0 17 5 17 10 0 12 -1 12 -20 0z" />
    <path d="M100 35 l0 -25 93 2 92 2 -89 3 -88 4 5 19 c3 11 1 20 -4 20 -5 0 -9
-11 -9 -25z" />
  </g>
  <g transform="translate(0.000000,25.000000) scale(0.100000,-0.100000)"  stroke="none">
    <path d="M6 234 l-6 -17 17 14 c10 7 20 15 22 16 2 2 -3 3 -11 3 -9 0 -19 -7
-22 -16z" />
    <path d="M65 230 c3 -5 8 -10 11 -10 2 0 4 5 4 10 0 6 -5 10 -11 10 -5 0 -7
-4 -4 -10z" />
    <path d="M100 230 c0 -7 3 -10 7 -7 3 4 3 10 0 14 -4 3 -7 0 -7 -7z" />
    <path d="M270 230 c0 -7 3 -10 7 -7 3 4 3 10 0 14 -4 3 -7 0 -7 -7z" />
    <path d="M0 202 c0 -12 19 -26 26 -19 2 2 -2 10 -11 17 l-15 12 0 -10z" />
    <path d="M50 190 l-15 -10 18 0 c9 0 17 5 17 10 0 12 -1 12 -20 0z" />
    <path d="M5 149 c-11 -17 1 -21 15 -4 l12 15 -10 0 c-6 0 -14 -5 -17 -11z" />
    <path d="M56 146 c21 -15 30 -14 19 3 -3 6 -14 11 -23 11 l-16 0 20 -14z" />
    <path d="M100 140 c0 -7 3 -10 7 -7 3 4 3 10 0 14 -4 3 -7 0 -7 -7z" />
    <path d="M265 140 c3 -5 8 -10 11 -10 2 0 4 5 4 10 0 6 -5 10 -11 10 -5 0 -7
-4 -4 -10z" />
    <path d="M2 108 l5 -13 33 0 33 0 5 13 4 14 -21 -14 -21 -13 -21 13 -21 14 4
-14z" />
    <path d="M7 64 c-15 -15 -6 -24 13 -12 l20 13 21 -13 21 -14 -4 14 c-5 14 -59
23 -71 12z" />
    <path d="M100 50 c0 -7 3 -10 7 -7 3 4 3 10 0 14 -4 3 -7 0 -7 -7z" />
    <path d="M265 50 c3 -5 8 -10 11 -10 2 0 4 5 4 10 0 6 -5 10 -11 10 -5 0 -7
-4 -4 -10z" />
    <path d="M0 20 c0 -5 5 -10 11 -10 5 0 7 5 4 10 -3 6 -8 10 -11 10 -2 0 -4 -4
-4 -10z" />
    <path d="M50 10 l-15 -10 18 0 c9 0 17 5 17 10 0 12 -1 12 -20 0z" />
  </g>
  <g transform="translate(0.000000,25.000000) scale(0.100000,-0.100000)"  stroke="none">
    <path d="M30 246 c0 -2 9 -6 20 -9 11 -3 20 -1 20 4 0 5 -9 9 -20 9 -11 0 -20
-2 -20 -4z" />
    <path d="M0 229 c0 -5 5 -7 10 -4 5 3 10 8 10 11 0 2 -4 4 -10 4 -5 0 -10 -5
-10 -11z" />
    <path d="M65 200 c-3 -5 -1 -10 4 -10 6 0 11 5 11 10 0 6 -2 10 -4 10 -3 0 -8
-4 -11 -10z" />
    <path d="M100 200 c0 -7 3 -10 7 -7 3 4 3 10 0 14 -4 3 -7 0 -7 -7z" />
    <path d="M263 143 c4 -3 10 -3 14 0 3 4 0 7 -7 7 -7 0 -10 -3 -7 -7z" />
    <path d="M100 110 c0 -7 3 -10 7 -7 3 4 3 10 0 14 -4 3 -7 0 -7 -7z" />
    <path d="M153 103 c20 -2 54 -2 75 0 20 2 3 4 -38 4 -41 0 -58 -2 -37 -4z" />
    <path d="M263 53 c4 -3 10 -3 14 0 3 4 0 7 -7 7 -7 0 -10 -3 -7 -7z" />
    <path d="M65 20 c-3 -5 -1 -10 4 -10 6 0 11 5 11 10 0 6 -2 10 -4 10 -3 0 -8
-4 -11 -10z" />
    <path d="M100 20 c0 -7 3 -10 7 -7 3 4 3 10 0 14 -4 3 -7 0 -7 -7z" />
    <path d="M10 10 c0 -5 5 -10 11 -10 5 0 7 5 4 10 -3 6 -8 10 -11 10 -2 0 -4
-4 -4 -10z" />
  </g>
  <g transform="translate(0.000000,25.000000) scale(0.100000,-0.100000)"  stroke="none">
    <path d="M5 240 c-3 -5 -1 -10 4 -10 6 0 11 5 11 10 0 6 -2 10 -4 10 -3 0 -8
-4 -11 -10z" />
    <path d="M60 240 c0 -5 5 -10 11 -10 5 0 7 5 4 10 -3 6 -8 10 -11 10 -2 0 -4
-4 -4 -10z" />
    <path d="M5 190 c3 -5 8 -10 11 -10 2 0 4 5 4 10 0 6 -5 10 -11 10 -5 0 -7 -4
-4 -10z" />
    <path d="M60 189 c0 -5 5 -7 10 -4 6 3 10 8 10 11 0 2 -4 4 -10 4 -5 0 -10 -5
-10 -11z" />
    <path d="M5 150 c-3 -5 -1 -10 4 -10 6 0 11 5 11 10 0 6 -2 10 -4 10 -3 0 -8
-4 -11 -10z" />
    <path d="M5 60 c-3 -5 -1 -10 4 -10 6 0 11 5 11 10 0 6 -2 10 -4 10 -3 0 -8
-4 -11 -10z" />
    <path d="M60 60 c0 -5 5 -10 11 -10 5 0 7 5 4 10 -3 6 -8 10 -11 10 -2 0 -4
-4 -4 -10z" />
    <path d="M60 9 c0 -5 5 -7 10 -4 6 3 10 8 10 11 0 2 -4 4 -10 4 -5 0 -10 -5
-10 -11z" />
  </g>
  <g transform="translate(0.000000,25.000000) scale(0.100000,-0.100000)" stroke="none">
    <path d="M10 240 c0 -7 3 -10 7 -7 3 4 3 10 0 14 -4 3 -7 0 -7 -7z" />
    <path d="M63 233 c4 -3 10 -3 14 0 3 4 0 7 -7 7 -7 0 -10 -3 -7 -7z" />
    <path d="M10 150 c0 -7 3 -10 7 -7 3 4 3 10 0 14 -4 3 -7 0 -7 -7z" />
    <path d="M60 150 c0 -5 5 -10 11 -10 5 0 7 5 4 10 -3 6 -8 10 -11 10 -2 0 -4
-4 -4 -10z" />
    <path d="M5 100 c3 -5 8 -10 11 -10 2 0 4 5 4 10 0 6 -5 10 -11 10 -5 0 -7 -4
-4 -10z" />
    <path d="M60 99 c0 -5 5 -7 10 -4 6 3 10 8 10 11 0 2 -4 4 -10 4 -5 0 -10 -5
-10 -11z" />
    <path d="M5 10 c3 -5 8 -10 11 -10 2 0 4 5 4 10 0 6 -5 10 -11 10 -5 0 -7 -4
-4 -10z" />
    <path d="M60 10 c0 -7 3 -10 7 -7 3 4 3 10 0 14 -4 3 -7 0 -7 -7z" />
  </g>
  <g transform="translate(0.000000,25.000000) scale(0.100000,-0.100000)" stroke="none">
    <path d="M5 10 c3 -5 8 -10 11 -10 3 0 2 5 -1 10 -3 6 -8 10 -11 10 -3 0 -2
-4 1 -10z" />
  </g>
  <g transform="translate(0.000000,25.000000) scale(0.100000,-0.100000)"  stroke="none">
    <path d="M65 150 c3 -5 8 -10 11 -10 3 0 2 5 -1 10 -3 6 -8 10 -11 10 -3 0 -2
-4 1 -10z" />
    <path d="M5 100 c3 -5 8 -10 11 -10 3 0 2 5 -1 10 -3 6 -8 10 -11 10 -3 0 -2
-4 1 -10z" />
    <path d="M64 98 l-7 -11 11 7 c12 7 16 16 8 16 -3 0 -8 -5 -12 -12z" />
  </g>
  <g transform="translate(0.000000,25.000000) scale(0.100000,-0.100000)" stroke="none" />
  <g transform="translate(0.000000,25.000000) scale(0.100000,-0.100000)" stroke="none" />
  <g transform="translate(0.000000,25.000000) scale(0.100000,-0.100000)" stroke="none" />
  <g transform="translate(0.000000,25.000000) scale(0.100000,-0.100000)"  stroke="none" />
  <g transform="translate(0.000000,25.000000) scale(0.100000,-0.100000)"  stroke="none" />
  <g transform="translate(0.000000,25.000000) scale(0.100000,-0.100000)"  stroke="none" />
  <g transform="translate(0.000000,25.000000) scale(0.100000,-0.100000)"  stroke="none" />
  <g transform="translate(0.000000,25.000000) scale(0.100000,-0.100000)"  stroke="none" />
  <g transform="translate(0.000000,25.000000) scale(0.100000,-0.100000)" stroke="none" />
  <g transform="translate(0.000000,25.000000) scale(0.100000,-0.100000)" stroke="none" />
  <g transform="translate(0.000000,25.000000) scale(0.100000,-0.100000)" stroke="none" />
  <g transform="translate(0.000000,25.000000) scale(0.100000,-0.100000)"  stroke="none" />
  <g transform="translate(0.000000,25.000000) scale(0.100000,-0.100000)"  stroke="none" />
  <g transform="translate(0.000000,25.000000) scale(0.100000,-0.100000)"  stroke="none" />
  <g transform="translate(0.000000,25.000000) scale(0.100000,-0.100000)"  stroke="none" />
  <g transform="translate(0.000000,25.000000) scale(0.100000,-0.100000)"  stroke="none" />
</symbol>
<symbol id="filter" viewBox="0 0 44.023 44.023">
 <g>
    <g>
      <path d="m43.729,.29c-0.219-0.22-0.513-0.303-0.799-0.276h-41.831c-0.286-0.026-0.579,0.057-0.798,0.276-0.09,0.09-0.155,0.195-0.203,0.306-0.059,0.128-0.098,0.268-0.098,0.418 0,0.292 0.129,0.549 0.329,0.731l14.671,20.539v20.662c-0.008,0.152 0.015,0.304 0.077,0.446 0.149,0.364 0.505,0.621 0.923,0.621 0.303,0 0.565-0.142 0.749-0.354l11.98-11.953c0.227-0.227 0.307-0.533 0.271-0.828v-8.589l14.729-20.583c0.392-0.391 0.392-1.025 0-1.416zm-16.445,20.998c-0.209,0.209-0.298,0.485-0.284,0.759v8.553l-10,9.977v-18.53c0.014-0.273-0.075-0.55-0.284-0.759l-13.767-19.274h38.128l-13.793,19.274z"/>
    </g>
  </g>
</symbol>
</svg>





